<svg width="200" height="200" viewBox="0 0 200 200" xmlns="http://www.w3.org/2000/svg">
  <!-- Background Circle -->
  <circle cx="100" cy="100" r="95" fill="#ffffff" stroke="#e9ecef" stroke-width="2"/>
  
  <!-- Baby figure - simplified for icon -->
  <!-- Body (light purple) -->
  <ellipse cx="100" cy="110" rx="25" ry="30" fill="#d4c5f9"/>
  
  <!-- Head (light orange/peach) -->
  <circle cx="100" cy="75" r="22" fill="#ffd4a3"/>
  
  <!-- Happy face -->
  <circle cx="93" cy="72" r="2" fill="#333"/>
  <circle cx="107" cy="72" r="2" fill="#333"/>
  <path d="M 93 80 Q 100 85 107 80" stroke="#333" stroke-width="1.5" fill="none" stroke-linecap="round"/>
  
  <!-- Arms up (light blue) -->
  <ellipse cx="80" cy="95" rx="8" ry="20" fill="#a8d5e2" transform="rotate(-35 80 95)"/>
  <ellipse cx="120" cy="95" rx="8" ry="20" fill="#a8d5e2" transform="rotate(35 120 95)"/>
  
  <!-- Hands (light green) -->
  <circle cx="73" cy="80" r="6" fill="#b8e6b8"/>
  <circle cx="127" cy="80" r="6" fill="#b8e6b8"/>
  
  <!-- Legs (light blue) -->
  <ellipse cx="92" cy="135" rx="7" ry="16" fill="#a8d5e2"/>
  <ellipse cx="108" cy="135" rx="7" ry="16" fill="#a8d5e2"/>
  
  <!-- Feet (light green) -->
  <ellipse cx="91" cy="150" rx="8" ry="5" fill="#b8e6b8"/>
  <ellipse cx="109" cy="150" rx="8" ry="5" fill="#b8e6b8"/>
  
  <!-- Sparkles around (representing development/milestones) -->
  <circle cx="50" cy="60" r="3" fill="#ffd4a3" opacity="0.8"/>
  <circle cx="150" cy="60" r="3" fill="#ffd4a3" opacity="0.8"/>
  <circle cx="45" cy="100" r="2.5" fill="#b8e6b8" opacity="0.8"/>
  <circle cx="155" cy="100" r="2.5" fill="#b8e6b8" opacity="0.8"/>
  
  <!-- Small stars -->
  <path d="M 60 45 L 61.5 48 L 65 48.5 L 62.5 51 L 63 54.5 L 60 52.5 L 57 54.5 L 57.5 51 L 55 48.5 L 58.5 48 Z" fill="#a8d5e2" opacity="0.7"/>
  <path d="M 140 45 L 141.5 48 L 145 48.5 L 142.5 51 L 143 54.5 L 140 52.5 L 137 54.5 L 137.5 51 L 135 48.5 L 138.5 48 Z" fill="#a8d5e2" opacity="0.7"/>
</svg>
